<svg xmlns="http://www.w3.org/2000/svg">
  <defs>
    <symbol id="marker">
      <path fill-rule="evenodd" clip-rule="evenodd" d="M0.292893 0.292893C0.683417 -0.0976311 1.31658 -0.0976311 1.70711 0.292893L9 7.58579L16.2929 0.292893C16.6834 -0.0976311 17.3166 -0.0976311 17.7071 0.292893C18.0976 0.683417 18.0976 1.31658 17.7071 1.70711L9.70711 9.70711C9.31658 10.0976 8.68342 10.0976 8.29289 9.70711L0.292893 1.70711C-0.0976311 1.31658 -0.0976311 0.683417 0.292893 0.292893Z" fill="#212429"/>
    </symbol>
    <symbol id="close">
      <path fill-rule="evenodd" clip-rule="evenodd" d="M13.7071 0.292893C14.0976 0.683417 14.0976 1.31658 13.7071 1.70711L1.70711 13.7071C1.31658 14.0976 0.683417 14.0976 0.292893 13.7071C-0.0976311 13.3166 -0.0976311 12.6834 0.292893 12.2929L12.2929 0.292893C12.6834 -0.0976311 13.3166 -0.0976311 13.7071 0.292893Z" fill="#212429"/>
      <path fill-rule="evenodd" clip-rule="evenodd" d="M0.292893 0.292893C0.683417 -0.0976311 1.31658 -0.0976311 1.70711 0.292893L13.7071 12.2929C14.0976 12.6834 14.0976 13.3166 13.7071 13.7071C13.3166 14.0976 12.6834 14.0976 12.2929 13.7071L0.292893 1.70711C-0.0976311 1.31658 -0.0976311 0.683417 0.292893 0.292893Z" fill="#212429"/>
    </symbol>
    <symbol id="tooltip">
      <path fill-rule="evenodd" clip-rule="evenodd" d="M11 2C6.02944 2 2 6.02944 2 11C2 15.9706 6.02944 20 11 20C15.9706 20 20 15.9706 20 11C20 6.02944 15.9706 2 11 2ZM0 11C0 4.92487 4.92487 0 11 0C17.0751 0 22 4.92487 22 11C22 17.0751 17.0751 22 11 22C4.92487 22 0 17.0751 0 11Z" fill="#212429"/>
      <path fill-rule="evenodd" clip-rule="evenodd" d="M11.2582 7.02428C10.7927 6.94443 10.314 7.03191 9.90675 7.27123C9.49955 7.51054 9.19019 7.88625 9.03345 8.3318C8.85018 8.85279 8.27926 9.12657 7.75827 8.9433C7.23728 8.76002 6.96351 8.18911 7.14678 7.66812C7.46025 6.77701 8.07898 6.02559 8.89339 5.54696C9.70779 5.06833 10.6653 4.89337 11.5964 5.05307C12.5274 5.21277 13.3719 5.69682 13.9802 6.41949C14.5884 7.14201 14.9214 8.05644 14.9201 9.00087C14.9197 10.5312 13.7851 11.5419 12.9748 12.082C12.5392 12.3724 12.1107 12.586 11.795 12.7263C11.6358 12.7971 11.5016 12.8508 11.405 12.8876C11.3566 12.906 11.3174 12.9203 11.2888 12.9305L11.2541 12.9426L11.243 12.9464L11.2391 12.9477L11.2376 12.9482C11.2373 12.9483 11.2363 12.9486 10.9201 12L11.2363 12.9486C10.7124 13.1233 10.1461 12.8401 9.97143 12.3162C9.7969 11.7926 10.0796 11.2267 10.6028 11.0516L10.6016 11.0521C10.6017 11.052 10.6018 11.052 10.6028 11.0516L10.6188 11.046C10.6342 11.0406 10.6594 11.0314 10.693 11.0186C10.7605 10.9929 10.8607 10.9529 10.9827 10.8986C11.2296 10.7889 11.551 10.6275 11.8654 10.4179C12.555 9.95818 12.9201 9.4691 12.9201 8.99996L12.9201 8.99847C12.9208 8.52615 12.7543 8.06883 12.4502 7.70749C12.146 7.34615 11.7238 7.10413 11.2582 7.02428Z" fill="#212429"/>
      <path fill-rule="evenodd" clip-rule="evenodd" d="M11 14C11.5523 14 12 14.4477 12 15V15.5C12 16.0523 11.5523 16.5 11 16.5C10.4477 16.5 10 16.0523 10 15.5V15C10 14.4477 10.4477 14 11 14Z" fill="#212429"/>
    </symbol>
    <!-- <svg width="24" height="24" viewBox="0 0 24 24" fill="none" xmlns="http://www.w3.org/2000/svg"> -->
    <symbol id="error">
      <path fill-rule="evenodd" clip-rule="evenodd" d="M10.5282 2.28306C10.9775 2.0301 11.4844 1.89722 12 1.89722C12.5156 1.89722 13.0225 2.0301 13.4718 2.28306C13.9211 2.53601 14.2976 2.90049 14.565 3.34133L14.5679 3.34608L23.0379 17.4861L23.046 17.4999C23.308 17.9535 23.4466 18.4678 23.448 18.9917C23.4495 19.5155 23.3138 20.0306 23.0544 20.4857C22.795 20.9408 22.4209 21.32 21.9694 21.5857C21.518 21.8513 21.0048 21.9941 20.481 21.9999L20.47 22L3.51903 22C2.99522 21.9942 2.48206 21.8513 2.03059 21.5857C1.57912 21.32 1.20507 20.9408 0.94567 20.4857C0.686267 20.0306 0.550547 19.5155 0.552014 18.9917C0.55348 18.4678 0.692083 17.9535 0.95403 17.4999L0.962153 17.4861L9.43215 3.34609L10.29 3.85995L9.43502 3.34133C9.70243 2.90049 10.0789 2.53601 10.5282 2.28306ZM11.1462 4.3766L2.68271 18.5058C2.59753 18.6556 2.55249 18.8249 2.55201 18.9973C2.55152 19.1719 2.59676 19.3436 2.68322 19.4953C2.76969 19.647 2.89438 19.7734 3.04487 19.8619C3.19404 19.9497 3.36342 19.9973 3.53642 20H20.4636C20.6366 19.9973 20.806 19.9497 20.9552 19.8619C21.1057 19.7734 21.2303 19.647 21.3168 19.4953C21.4033 19.3436 21.4485 19.1719 21.448 18.9973C21.4476 18.8249 21.4025 18.6556 21.3174 18.5058L12.855 4.37859C12.8546 4.37792 12.8542 4.37726 12.8538 4.3766C12.7648 4.23054 12.6397 4.10977 12.4906 4.02583C12.3409 3.94151 12.1719 3.89722 12 3.89722C11.8282 3.89722 11.6592 3.94151 11.5094 4.02583C11.3603 4.10977 11.2353 4.23054 11.1462 4.3766Z" fill="currentColor"/>
      <path fill-rule="evenodd" clip-rule="evenodd" d="M12 8C12.5523 8 13 8.44772 13 9V13C13 13.5523 12.5523 14 12 14C11.4477 14 11 13.5523 11 13V9C11 8.44772 11.4477 8 12 8Z" fill="currentColor"/>
      <path fill-rule="evenodd" clip-rule="evenodd" d="M12 15C12.5523 15 13 15.4477 13 16V16.5C13 17.0523 12.5523 17.5 12 17.5C11.4477 17.5 11 17.0523 11 16.5V16C11 15.4477 11.4477 15 12 15Z" fill="currentColor"/>
    </symbol>
    <symbol id="success">
      <path fill-rule="evenodd" clip-rule="evenodd" d="M15.663 3.77342C13.8902 2.98352 11.9096 2.78783 10.0166 3.21555C8.12351 3.64326 6.41942 4.67145 5.15845 6.14678C3.89749 7.62211 3.14721 9.46552 3.01951 11.4021C2.89181 13.3387 3.39354 15.2646 4.44987 16.8928C5.50619 18.5209 7.06051 19.764 8.88102 20.4365C10.7015 21.1091 12.6907 21.1752 14.5518 20.6249C16.413 20.0746 18.0464 18.9375 19.2084 17.3831C20.3705 15.8286 20.9989 13.9402 21 11.9994V11.08C21 10.5277 21.4477 10.08 22 10.08C22.5523 10.08 23 10.5277 23 11.08V12C22.9986 14.3721 22.2306 16.6807 20.8103 18.5806C19.39 20.4804 17.3936 21.8703 15.1189 22.5428C12.8442 23.2154 10.413 23.1346 8.18792 22.3126C5.96285 21.4906 4.06312 19.9713 2.77206 17.9813C1.48099 15.9914 0.86777 13.6374 1.02384 11.2705C1.17992 8.90358 2.09693 6.65052 3.63811 4.84734C5.17929 3.04416 7.26206 1.78748 9.57581 1.26472C11.8896 0.74196 14.3103 0.981129 16.477 1.94656C16.9815 2.17134 17.2082 2.76252 16.9834 3.26699C16.7587 3.77146 16.1675 3.9982 15.663 3.77342Z" fill="currentColor"/>
      <path fill-rule="evenodd" clip-rule="evenodd" d="M22.7068 3.29254C23.0975 3.68287 23.0978 4.31603 22.7075 4.70675L12.7075 14.7168C12.52 14.9044 12.2656 15.0099 12.0002 15.01C11.7349 15.0101 11.4805 14.9047 11.2929 14.7171L8.29289 11.7171C7.90237 11.3266 7.90237 10.6934 8.29289 10.3029C8.68342 9.91237 9.31658 9.91237 9.70711 10.3029L11.9996 12.5954L21.2925 3.29325C21.6829 2.90253 22.316 2.90221 22.7068 3.29254Z" fill="currentColor"/>
    </symbol>


  </defs>
</svg>

