<svg xmlns="http://www.w3.org/2000/svg">
  <defs>
    <symbol id="marker">
      <path fill-rule="evenodd" clip-rule="evenodd" d="M0.292893 0.292893C0.683417 -0.0976311 1.31658 -0.0976311 1.70711 0.292893L9 7.58579L16.2929 0.292893C16.6834 -0.0976311 17.3166 -0.0976311 17.7071 0.292893C18.0976 0.683417 18.0976 1.31658 17.7071 1.70711L9.70711 9.70711C9.31658 10.0976 8.68342 10.0976 8.29289 9.70711L0.292893 1.70711C-0.0976311 1.31658 -0.0976311 0.683417 0.292893 0.292893Z" fill="#212429"/>
    </symbol>
    <symbol id="close">
      <path fill-rule="evenodd" clip-rule="evenodd" d="M13.7071 0.292893C14.0976 0.683417 14.0976 1.31658 13.7071 1.70711L1.70711 13.7071C1.31658 14.0976 0.683417 14.0976 0.292893 13.7071C-0.0976311 13.3166 -0.0976311 12.6834 0.292893 12.2929L12.2929 0.292893C12.6834 -0.0976311 13.3166 -0.0976311 13.7071 0.292893Z" fill="#212429"/>
      <path fill-rule="evenodd" clip-rule="evenodd" d="M0.292893 0.292893C0.683417 -0.0976311 1.31658 -0.0976311 1.70711 0.292893L13.7071 12.2929C14.0976 12.6834 14.0976 13.3166 13.7071 13.7071C13.3166 14.0976 12.6834 14.0976 12.2929 13.7071L0.292893 1.70711C-0.0976311 1.31658 -0.0976311 0.683417 0.292893 0.292893Z" fill="#212429"/>
    </symbol>
    <symbol id="tooltip">
      <path fill-rule="evenodd" clip-rule="evenodd" d="M11 2C6.02944 2 2 6.02944 2 11C2 15.9706 6.02944 20 11 20C15.9706 20 20 15.9706 20 11C20 6.02944 15.9706 2 11 2ZM0 11C0 4.92487 4.92487 0 11 0C17.0751 0 22 4.92487 22 11C22 17.0751 17.0751 22 11 22C4.92487 22 0 17.0751 0 11Z" fill="#212429"/>
      <path fill-rule="evenodd" clip-rule="evenodd" d="M11.2582 7.02428C10.7927 6.94443 10.314 7.03191 9.90675 7.27123C9.49955 7.51054 9.19019 7.88625 9.03345 8.3318C8.85018 8.85279 8.27926 9.12657 7.75827 8.9433C7.23728 8.76002 6.96351 8.18911 7.14678 7.66812C7.46025 6.77701 8.07898 6.02559 8.89339 5.54696C9.70779 5.06833 10.6653 4.89337 11.5964 5.05307C12.5274 5.21277 13.3719 5.69682 13.9802 6.41949C14.5884 7.14201 14.9214 8.05644 14.9201 9.00087C14.9197 10.5312 13.7851 11.5419 12.9748 12.082C12.5392 12.3724 12.1107 12.586 11.795 12.7263C11.6358 12.7971 11.5016 12.8508 11.405 12.8876C11.3566 12.906 11.3174 12.9203 11.2888 12.9305L11.2541 12.9426L11.243 12.9464L11.2391 12.9477L11.2376 12.9482C11.2373 12.9483 11.2363 12.9486 10.9201 12L11.2363 12.9486C10.7124 13.1233 10.1461 12.8401 9.97143 12.3162C9.7969 11.7926 10.0796 11.2267 10.6028 11.0516L10.6016 11.0521C10.6017 11.052 10.6018 11.052 10.6028 11.0516L10.6188 11.046C10.6342 11.0406 10.6594 11.0314 10.693 11.0186C10.7605 10.9929 10.8607 10.9529 10.9827 10.8986C11.2296 10.7889 11.551 10.6275 11.8654 10.4179C12.555 9.95818 12.9201 9.4691 12.9201 8.99996L12.9201 8.99847C12.9208 8.52615 12.7543 8.06883 12.4502 7.70749C12.146 7.34615 11.7238 7.10413 11.2582 7.02428Z" fill="#212429"/>
      <path fill-rule="evenodd" clip-rule="evenodd" d="M11 14C11.5523 14 12 14.4477 12 15V15.5C12 16.0523 11.5523 16.5 11 16.5C10.4477 16.5 10 16.0523 10 15.5V15C10 14.4477 10.4477 14 11 14Z" fill="#212429"/>
    </symbol>
    <symbol id="checkbox">
      <path d="M1.5 7.5L5 11L13 2" stroke="white" stroke-width="3" stroke-linecap="round" stroke-linejoin="round"/>
      <!-- <rect width="28" height="28" rx="4" fill="#4263EB"/>
      <path d="M8.5 14.5L12 18L20 9" stroke="white" stroke-width="3" stroke-linecap="round" stroke-linejoin="round"/> -->
    </symbol>
  </defs>
</svg>

